<svg version="1.1" id="logo_svg" xmlns="http://www.w3.org/2000/svg" xmlns:xlink="http://www.w3.org/1999/xlink" x="0px" y="0px" viewBox="0 0 130 33" style="enable-background:new 0 0 130 33;" xml:space="preserve">
						<path id="Logotype_-_white" class="st0" d="M21.3,0.4C21.6,0.1,22,0,22.3,0c0.4,0,0.9,0.1,1.2,0.5C23.9,0.9,24,1.4,24,1.9v22.4
						c0,0.9-0.7,1.7-1.6,1.7s-1.7-0.7-1.7-1.6v-0.1V6.7l-7.4,13.6c-0.1,0.3-0.4,0.6-0.6,0.8c-0.2,0.2-0.5,0.3-0.8,0.3
						c-0.6-0.1-1.2-0.5-1.4-1.1L3.3,6.9v17.4c0,0.9-0.7,1.7-1.6,1.7S0,25.3,0,24.4v-0.1V1.8c0-0.5,0.1-1,0.5-1.3C0.8,0.1,1.3,0,1.8,0
						c0.4,0,0.8,0.1,1.1,0.4c0.4,0.3,0.6,0.8,0.9,1.2l8.4,15.2l8.4-15.2C20.6,1.1,21,0.7,21.3,0.4z M28.3,9.6c-0.1-0.3-0.2-0.6-0.2-0.9
						c0-0.4,0.2-0.9,0.5-1.1c0.3-0.3,0.8-0.4,1.2-0.4c0.6,0,1.2,0.4,1.4,1l5,13.6l5.2-13.6c0.1-0.3,0.3-0.5,0.5-0.8
						c0.2-0.2,0.5-0.3,0.9-0.3s0.8,0.1,1.1,0.4s0.5,0.7,0.5,1.1c0,0.2,0,0.4-0.1,0.6c0,0.2-0.1,0.3-0.1,0.5l-7,17.6
						c-0.4,0.9-0.8,1.8-1.3,2.7c-0.4,0.7-0.9,1.3-1.4,1.8c-0.5,0.5-1.1,0.8-1.7,1c-0.7,0.2-1.5,0.3-2.2,0.3c-1.3,0-2-0.5-2-1.5
						c-0.1-0.8,0.5-1.5,1.2-1.5c0.1,0,0.2,0,0.4,0c0.6,0,1.1-0.1,1.7-0.2c0.4-0.1,0.8-0.3,1.2-0.6c0.3-0.3,0.6-0.6,0.8-1s0.4-0.8,0.6-1.2
						l0.5-1.3L28.3,9.6z M51.8,8.8v14h5.4c1.2,0,2.3-0.2,3.3-0.8c1-0.5,1.8-1.2,2.5-2.1c0.7-1,1.2-2.1,1.6-3.2c0.4-1.3,0.6-2.7,0.5-4
						c0-1.3-0.2-2.7-0.5-4c-0.3-1.1-0.9-2.2-1.6-3.1c-0.7-0.9-1.6-1.5-2.5-2C59.3,3.2,58.1,3,57,3h-6.8c0,0-1.6,0.1-1.6-1.3
						c0-0.4,0.1-0.9,0.4-1.2C49.2,0.1,49.7,0,50.1,0h7.2c1.6,0,3.1,0.3,4.6,0.9c1.3,0.6,2.5,1.5,3.5,2.6c1,1.2,1.8,2.6,2.2,4
						c0.5,1.7,0.8,3.4,0.8,5.2s-0.3,3.5-0.8,5.2c-0.5,1.5-1.3,2.9-2.3,4.1s-2.1,2.1-3.5,2.8c-1.4,0.7-3,1-4.5,1H50
						c-0.5,0-0.9-0.1-1.2-0.5c-0.3-0.3-0.4-0.8-0.4-1.2V8.9c0-0.9,0.7-1.7,1.6-1.8c0.1,0,0.1,0,0.2,0C51.1,7.1,51.8,7.9,51.8,8.8
						L51.8,8.8L51.8,8.8z M73.4,7.5c0.3-0.3,0.7-0.5,1.1-0.4C75.2,7,75.9,7.5,76,8.2c0,0.1,0,0.3,0,0.4v2.1c0.5-1.1,1.3-2.1,2.3-2.9
						C79.4,7,80.7,6.7,82,6.7c0.5,0,0.9,0.1,1.3,0.4c0.3,0.3,0.4,0.6,0.4,1c0,0.4-0.1,0.8-0.4,1.1s-0.7,0.5-1.2,0.5
						c-0.8,0-1.6,0.1-2.3,0.4c-0.7,0.3-1.3,0.7-1.9,1.2c-0.6,0.6-1,1.3-1.3,2c-0.3,0.9-0.5,1.8-0.5,2.8v8.1c0,0.4-0.2,0.9-0.5,1.1
						c-0.3,0.3-0.7,0.4-1.1,0.4s-0.8-0.1-1.1-0.4c-0.3-0.3-0.5-0.7-0.5-1.1V8.5C73,8.2,73.1,7.8,73.4,7.5L73.4,7.5z M90,0.8
						c0.4,0.4,0.6,0.9,0.5,1.4c0,0.5-0.1,1.1-0.5,1.4s-0.9,0.5-1.4,0.5s-1-0.2-1.3-0.5c-0.7-0.8-0.7-2,0-2.8c0.4-0.3,0.8-0.5,1.3-0.5
						C89.1,0.2,89.6,0.4,90,0.8L90,0.8z M87.4,7.5c0.6-0.6,1.6-0.6,2.3,0c0.3,0.3,0.5,0.7,0.5,1.2v12.5c0,0.4,0.1,0.9,0.2,1.3
						c0.1,0.3,0.5,0.5,0.8,0.5s0.6,0.1,0.7,0.4s0.2,0.6,0.2,0.9c0,0.4-0.1,0.9-0.4,1.2c-0.4,0.3-0.9,0.5-1.4,0.5c-1,0.1-1.9-0.3-2.6-1.1
						c-0.6-1-0.9-2.2-0.8-3.4V8.7C86.9,8.2,87.1,7.8,87.4,7.5L87.4,7.5z M108.3,7.4c0.2-0.2,0.5-0.3,0.8-0.3c0.4,0,0.9,0.1,1.2,0.4
						c0.3,0.3,0.5,0.7,0.5,1.2c0,0.3-0.1,0.6-0.2,0.8L104,24.7c-0.1,0.3-0.4,0.6-0.6,0.9c-0.6,0.4-1.3,0.4-1.9,0
						c-0.3-0.3-0.5-0.6-0.6-0.9l-6.4-15c-0.1-0.2-0.2-0.3-0.2-0.5c-0.1-0.2-0.1-0.3-0.1-0.5c0-0.4,0.2-0.8,0.5-1.1
						c0.3-0.3,0.7-0.4,1.2-0.4c0.4,0,0.7,0.1,1,0.3c0.2,0.2,0.3,0.4,0.4,0.6l5.3,13.1l5.3-13C107.9,7.9,108,7.6,108.3,7.4L108.3,7.4z
						 M117.9,21.5c1.1,1.2,2.6,1.8,4.2,1.7c1,0,2.1-0.2,3-0.6c0.7-0.3,1.4-0.8,2-1.3c0.2-0.2,0.5-0.3,0.8-0.3c0.4,0,0.8,0.2,1,0.5
						c0.3,0.3,0.4,0.6,0.4,1c0,0.3-0.1,0.5-0.2,0.8c-0.1,0.2-0.3,0.4-0.5,0.5c-0.8,0.7-1.8,1.3-2.8,1.7c-1.3,0.5-2.6,0.8-4,0.7
						c-1.2,0-2.5-0.2-3.6-0.7s-2-1.2-2.8-2c-0.8-0.9-1.4-1.9-1.8-3.1s-0.7-2.5-0.6-3.9c0-1.3,0.2-2.7,0.7-3.9c0.4-1.2,1.1-2.2,1.9-3.1
						c0.8-0.9,1.7-1.6,2.8-2.1c2.2-1,4.6-1,6.8-0.1c1,0.4,1.8,1,2.6,1.8c0.7,0.7,1.3,1.6,1.7,2.6s0.6,2,0.6,3c0,0.6-0.1,1.1-0.3,1.7
						c-0.3,0.5-0.8,0.7-1.4,0.7h-12.2C116.2,18.7,116.8,20.3,117.9,21.5z M118.2,11.1c-1.1,1-1.8,2.4-2,3.9h10.7c0-0.6,0-1.3-0.3-1.9
						c-0.2-0.6-0.6-1.2-1-1.7c-0.5-0.5-1-0.9-1.7-1.2s-1.4-0.5-2.2-0.5C120.4,9.7,119.1,10.2,118.2,11.1L118.2,11.1z"></path>
					</svg>