<svg id="say-hello-responsive" viewBox="0 0 92 92" version="1.1" xmlns="http://www.w3.org/2000/svg" xmlns:xlink="http://www.w3.org/1999/xlink" xml:space="preserve">
	<g id="spickel">
		<path d="M72.02,91.04l0,-4.35c8.164,-0.011 14.879,-6.726 14.89,-14.89l4.35,0c-0.011,10.551 -8.689,19.229 -19.24,19.24Z"/>
	</g>
	<g id="hello">
		<path d="M86.82,56.18c-0.662,-0.802 -1.866,-0.919 -2.67,-0.26c-0.23,0.19 -0.49,0.38 -0.76,0.56c0.07,-0.24 0.14,-0.48 0.19,-0.72c0.7,-3.07 -0.18,-5.59 -2.49,-7.12c-2.621,-1.84 -6.224,-1.512 -8.47,0.77c-2.64,2.41 -4.36,7.11 -2.53,10.49c0.927,1.684 2.627,2.808 4.54,3c-2.1,2 -4.37,3.51 -5.93,3.72c-2.87,0.4 -4.75,-3 -6.55,-6.81l-0.39,-0.81c2.517,-3.046 4.749,-6.317 6.67,-9.77c3.5,-6.4 6.79,-15.48 2.58,-22.38c-2.53,-4.14 -5.28,-3.38 -6.35,-2.85c-6,2.93 -9.45,24.14 -7.16,34.14c-2.88,3.23 -5.41,5.3 -6.39,5.45c-0.82,0 -2.12,-1.28 -3.39,-4c1.403,-1.915 2.6,-3.973 3.57,-6.14c3.3,-7.36 3,-13.6 -0.79,-16.29c-3.4,-2.41 -5.66,-1.46 -6.71,-0.68c-4.45,3.33 -3,15.1 -0.6,22l0.17,0.48c-2.78,3.23 -6,5.31 -8.82,4.67c-0.271,-0.061 -0.538,-0.138 -0.8,-0.23c1.037,-1.548 1.858,-3.23 2.44,-5c1.29,-4 0.69,-7.31 -1.66,-9c-2,-1.41 -4.17,-1.58 -5.92,-0.47c-2.45,1.55 -3.68,5.45 -3,9.48c0.33,2.096 1.238,4.06 2.62,5.67c-0.812,0.855 -1.899,1.4 -3.07,1.54c-1.73,0 -2.78,-2.66 -3.26,-4.23c-1.89,-6.29 -5.53,-6.22 -7,-5.9c-2.025,0.593 -3.763,1.91 -4.88,3.7c-0.08,-1.19 -0.16,-2.38 -0.23,-3.56c1.877,-1.223 3.49,-2.811 4.74,-4.67c2.344,-3.439 3.526,-7.541 3.37,-11.7c-0.28,-4.7 -2.75,-7.69 -6.31,-7.69l-0.22,0c-1.239,0.04 -2.406,0.595 -3.22,1.53c-2.61,2.89 -2.85,9.72 -2.28,20.31c-1.153,0.48 -2.375,0.777 -3.62,0.88c-0.978,0.085 -1.737,0.914 -1.737,1.895c0,1.043 0.859,1.902 1.902,1.902c0.055,0 0.11,-0.002 0.165,-0.007c1.199,-0.1 2.383,-0.335 3.53,-0.7c0.113,1.8 0.24,3.69 0.38,5.67c0.14,2 0.29,4.05 0.42,6.11c-0.002,0.669 0.042,1.337 0.13,2c0.129,0.935 0.936,1.639 1.88,1.64l0.19,0c1.008,-0.1 1.768,-0.989 1.71,-2c-0.033,-0.587 -0.07,-1.177 -0.11,-1.77c0.05,-4.71 2.89,-9.37 5,-9.83c1.34,-0.28 2.22,2.2 2.55,3.28c1.72,5.7 4.68,6.92 6.86,6.94c2.339,-0.182 4.52,-1.257 6.09,-3c0.778,0.393 1.6,0.688 2.45,0.88c3.89,0.89 7.93,-1.17 11.35,-4.62c1.76,3.15 3.89,4.78 6.16,4.71c1.94,0 4.83,-2.19 7.82,-5.31c1.76,3.68 4.65,9 10.19,8.3c3.42,-0.47 8,-4 11.05,-8.13c2.251,-0.828 4.372,-1.973 6.3,-3.4c0.815,-0.65 0.95,-1.855 0.3,-2.67Zm-75.89,-20.53c0.126,-0.166 0.321,-0.266 0.53,-0.27l0.07,0c2.12,0 2.48,3.15 2.53,4.12c0.149,4.299 -1.505,8.471 -4.56,11.5c-0.3,-7.34 -0.16,-13.6 1.43,-15.35Zm21.62,21.55c-0.447,1.371 -1.068,2.678 -1.85,3.89c-0.691,-0.996 -1.152,-2.134 -1.35,-3.33c-0.45,-2.6 0.3,-5 1.28,-5.62c0.135,-0.093 0.296,-0.142 0.46,-0.14c0.471,-0.024 0.932,0.141 1.28,0.46c0.76,0.67 0.9,2.5 0.18,4.75l0,-0.01Zm16.27,-16.37c1.22,2.12 1.38,5.67 -1,11c-0.498,1.106 -1.062,2.182 -1.69,3.22c-1.91,-6.93 -1.67,-14.2 -0.06,-15.59c0.99,-0.84 2.44,0.84 2.75,1.38l0,-0.01Zm19.06,-12c2.73,4.74 0.74,11.25 -1.43,15.93c-1.583,3.343 -3.503,6.516 -5.73,9.47c-0.72,-8 1.13,-20.87 4.51,-25.61c1.34,-1.91 2.07,-0.84 2.65,0.18l0,0.03Zm12,26.12c-0.39,1.453 -1.037,2.825 -1.91,4.05c-1.46,0.29 -3.79,0.51 -4.53,-0.87c-0.74,-1.38 0.06,-4.33 1.75,-5.88c0.558,-0.596 1.325,-0.954 2.14,-1c0.599,0.012 1.181,0.204 1.67,0.55c0.64,0.44 1.32,1.17 0.88,3.12l0,0.03Z"/>
	</g>
	<g id="say">
		<path d="M43.91,28.47l4.92,-10.76l-8.6,-17.24l5.12,0l5.76,12.24l5.6,-12.24l4.6,0l-12.8,28l-4.6,0Z" />
		<path d="M29.63,0c5.64,0 8.36,2.68 8.36,7.8l0,12.68l-4.32,0l0,-2.76c-1.426,2.084 -3.838,3.282 -6.36,3.16c-4.16,0 -6.76,-2.6 -6.76,-6.2c0,-3.6 2.72,-5.88 6.4,-6.2l5.56,-0.56c0.84,-0.08 1.16,-0.36 1.16,-0.92l0,-0.44c0,-1.56 -1.32,-2.64 -4,-2.64c-2.44,0 -4.48,0.88 -5.08,3.08l-3.48,-2.2c1.04,-2.96 3.88,-4.8 8.52,-4.8Zm4,11.24l-5.76,0.72c-2,0.24 -2.88,1.28 -2.88,2.6c0,1.52 1.12,2.56 3.28,2.56c3.32,0 5.36,-2.36 5.36,-4.72l0,-1.16Z" />
		<path d="M9,0c3.84,0 6.32,1.44 8,3.64l-2.92,2.8c-1.227,-1.663 -3.216,-2.597 -5.28,-2.48c-2,0 -3.28,0.72 -3.28,2c0,1.48 1.6,1.84 4.72,2.52c3.4,0.76 6.8,1.76 6.8,6.16c0,4.4 -3.32,6.36 -8.12,6.36c-3.8,0 -7.2,-1.24 -8.88,-4l3,-2.84c1.24,2.08 3.6,3 6.2,3c2,0 3.44,-0.64 3.44,-2.16c0,-1.52 -1.44,-1.92 -4.44,-2.56c-3,-0.64 -7.08,-1.8 -7.08,-6.2c-0.08,-3.84 2.88,-6.24 7.84,-6.24Z" />
	</g>
</svg>