<svg xmlns="http://www.w3.org/2000/svg" xmlns:xlink="http://www.w3.org/1999/xlink" data-name="Layer 4" width="798.5700073242188" height="200.50999450683594"><rect id="backgroundrect" width="100%" height="100%" x="0" y="0" fill="none" stroke="none"/>
  <defs>
    <style>.cls-1{fill:none;}.cls-2{fill:#ffc107;}.cls-3{fill:#0f9d58;}.cls-4{fill:#bf360c;}.cls-11,.cls-12,.cls-4,.cls-5,.cls-6{opacity:0.2;}.cls-11,.cls-12,.cls-16,.cls-17,.cls-18,.cls-23,.cls-24,.cls-4,.cls-5,.cls-6{isolation:isolate;}.cls-5{fill:#263238;}.cls-18,.cls-6{fill:#fff;}.cls-7{fill:url(#radial-gradient);}.cls-8{fill:url(#radial-gradient-2);}.cls-9{fill:#4285f4;}.cls-10{fill:#db4437;}.cls-11{fill:#1a237e;}.cls-12{fill:#3e2723;}.cls-13{fill:url(#radial-gradient-3);}.cls-14{fill:#fdbd2a;}.cls-15{fill:#11a464;}.cls-16{fill:#be4127;}.cls-16,.cls-17,.cls-18,.cls-23,.cls-24{opacity:0.2;}.cls-17{fill:#1d2f36;}.cls-19{fill:url(#radial-gradient-4);}.cls-20{fill:url(#radial-gradient-5);}.cls-21{fill:#4d7cbe;}.cls-22{fill:#dd4f41;}.cls-23{fill:#29397a;}.cls-24{fill:#382120;}.cls-25{fill:url(#radial-gradient-6);}.cls-26{fill:#fafafa;}</style>
    <radialGradient id="radial-gradient" cx="92.62000274658203" cy="-2287.5" r="69.16000366210938" gradientTransform="translate(0 2447.46)" gradientUnits="userSpaceOnUse">
      <stop offset="0" stop-color="#bf360c" stop-opacity="0.2"/>
      <stop offset="1" stop-color="#bf360c" stop-opacity="0.02"/>
    </radialGradient>
    <radialGradient id="radial-gradient-2" cx="92.41999816894531" cy="-2287.06005859375" r="69.72000122070312" gradientTransform="translate(0 2447.46)" gradientUnits="userSpaceOnUse">
      <stop offset="0" stop-color="#263238" stop-opacity="0.2"/>
      <stop offset="1" stop-color="#263238" stop-opacity="0.02"/>
    </radialGradient>
    <radialGradient id="radial-gradient-3" cx="-1.559999942779541" cy="-2445.89990234375" r="209.9199981689453" gradientTransform="translate(0 2447.46)" gradientUnits="userSpaceOnUse">
      <stop offset="0" stop-color="#fff" stop-opacity="0.1"/>
      <stop offset="1" stop-color="#fff" stop-opacity="0"/>
    </radialGradient>
    <radialGradient id="radial-gradient-4" cx="94.19000244140625" cy="-1914.5799560546875" r="68.45999908447266" gradientTransform="translate(0 2075.46)" gradientUnits="userSpaceOnUse">
      <stop offset="0" stop-color="#be4127" stop-opacity="0.2"/>
      <stop offset="1" stop-color="#be4127" stop-opacity="0.02"/>
    </radialGradient>
    <radialGradient id="radial-gradient-5" cx="93.98999786376953" cy="-1914.1500244140625" r="69.01000213623047" gradientTransform="translate(0 2075.46)" gradientUnits="userSpaceOnUse">
      <stop offset="0" stop-color="#1d2f36" stop-opacity="0.2"/>
      <stop offset="1" stop-color="#1d2f36" stop-opacity="0.02"/>
    </radialGradient>
    <radialGradient id="radial-gradient-6" cx="0.9700000286102295" cy="-2071.3701171875" r="207.77999877929688" gradientTransform="translate(0 2075.46)" xlink:href="#radial-gradient-3"/>
  </defs>
  <title>logo</title>



<g class="currentLayer" style=""><title>Layer 1</title><g id="_Group_">
    <g id="_Group_2">
      <g id="_Group_3">
        <path id="_Path_" class="cls-1" d="M122.5,90.6,70.1,0H0L57.8,100,0,200H70.1l52.4-90.6A19.09,19.09,0,0,0,122.5,90.6Z"/>
        <path id="_Path_2" class="cls-2" d="M92.4,159.8,75.8,131.1,35.9,200H70.1l22.8-39.4Z"/>
        <path id="_Path_3" class="cls-1" d="M122.5,90.6,70.1,0H0L57.8,100,0,200H70.1l52.4-90.6A19.09,19.09,0,0,0,122.5,90.6Z"/>
        <path id="_Path_4" class="cls-3" d="M57.8,100l18,31.1L35.9,200H0Z"/>
        <path id="_Path_5" class="cls-1" d="M122.5,90.6,70.1,0H0L57.8,100,0,200H70.1l52.4-90.6A19.09,19.09,0,0,0,122.5,90.6Z"/>
        <path id="_Path_6" class="cls-4" d="M70.1,198.4H36.8l-.9,1.6H70.1l22.8-39.4-.5-.8Z"/>
        <path id="_Path_7" class="cls-1" d="M122.5,90.6,70.1,0H0L57.8,100,0,200H70.1l52.4-90.6A19.09,19.09,0,0,0,122.5,90.6Z"/>
        <path id="_Path_8" class="cls-5" d="M.9,198.4,0,200H35.9l.9-1.6Z"/>
        <path id="_Path_9" class="cls-1" d="M122.5,90.6,70.1,0H0L57.8,100,0,200H70.1l52.4-90.6A19.09,19.09,0,0,0,122.5,90.6Z"/>
        <path id="_Path_10" class="cls-6" d="M0,200H.9l57.4-99.2-.5-.8Z"/>
        <path id="_Path_11" class="cls-1" d="M122.5,90.6,70.1,0H0L57.8,100,0,200H70.1l52.4-90.6A19.09,19.09,0,0,0,122.5,90.6Z"/>
        <path id="_Path_12" class="cls-7" d="M92.9,160.6,75.8,131.1l-4.2,7.2Z"/>
        <path id="_Path_13" class="cls-1" d="M122.5,90.6,70.1,0H0L57.8,100,0,200H70.1l52.4-90.6A19.09,19.09,0,0,0,122.5,90.6Z"/>
        <path id="_Path_14" class="cls-8" d="M71.6,138.3l4.2-7.2L57.8,100l-8.5,14.8Z"/>
        <path id="_Path_15" class="cls-1" d="M122.5,90.6,70.1,0H0L57.8,100,0,200H70.1l52.4-90.6A19.09,19.09,0,0,0,122.5,90.6Z"/>
        <g id="_Group_4">
          <g id="_Group_5">
            <path id="_Path_16" class="cls-9" d="M35.9,0H0L92.9,160.6l17.9-31.1Z"/>
          </g>
        </g>
        <path id="_Path_17" class="cls-1" d="M122.5,90.6,70.1,0H0L57.8,100,0,200H70.1l52.4-90.6A19.09,19.09,0,0,0,122.5,90.6Z"/>
        <path id="_Path_18" class="cls-10" d="M122.5,109.4a18.6,18.6,0,0,0,0-18.8L70.1,0H35.9l74.9,129.5Z"/>
        <path id="_Path_19" class="cls-1" d="M122.5,90.6,70.1,0H0L57.8,100,0,200H70.1l52.4-90.6A19.09,19.09,0,0,0,122.5,90.6Z"/>
        <path id="_Path_20" class="cls-11" d="M110.8,129.5l-.4-.8L92.9,159,.9,0H0L92.9,160.6Z"/>
        <path id="_Path_21" class="cls-1" d="M122.5,90.6,70.1,0H0L57.8,100,0,200H70.1l52.4-90.6A19.09,19.09,0,0,0,122.5,90.6Z"/>
        <path id="_Path_22" class="cls-6" d="M70.1,1.6l52.4,90.6a20.32,20.32,0,0,1,2.5,8.6,19.54,19.54,0,0,0-2.5-10.2L70.1,0H0L.9,1.6Z"/>
        <path id="_Path_23" class="cls-1" d="M122.5,90.6,70.1,0H0L57.8,100,0,200H70.1l52.4-90.6A19.09,19.09,0,0,0,122.5,90.6Z"/>
        <path id="_Path_24" class="cls-12" d="M110.8,129.5l11.6-20.1a19.31,19.31,0,0,0,2.5-10.2,17.83,17.83,0,0,1-2.5,8.6l-12.1,20.9Z"/>
        <path id="_Path_25" class="cls-1" d="M122.5,90.6,70.1,0H0L57.8,100,0,200H70.1l52.4-90.6A19.09,19.09,0,0,0,122.5,90.6Z"/>
        <path id="_Path_26" class="cls-13" d="M122.5,90.6,70.1,0H0L57.8,100,0,200H70.1l52.4-90.6A19.09,19.09,0,0,0,122.5,90.6Z"/>
      </g>
    </g>
  </g><g id="_Group_6">
    <g id="_Group_7">
      <g id="_Group_8">
        <path id="_Path_27" class="cls-1" d="M123.76,92.22,71.9,2.55H2.51l57.21,99-57.21,99H71.9l51.87-89.68A18.89,18.89,0,0,0,123.76,92.22Z"/>
        <path id="_Path_28" class="cls-14" d="M94,160.72,77.54,132.31,38,200.51H71.9l22.57-39Z"/>
        <path id="_Path_29" class="cls-1" d="M123.76,92.22,71.9,2.55H2.51l57.21,99-57.21,99H71.9l51.87-89.68A18.89,18.89,0,0,0,123.76,92.22Z"/>
        <path id="_Path_30" class="cls-15" d="M59.72,101.53l17.82,30.78L38,200.51H2.51Z"/>
        <path id="_Path_31" class="cls-1" d="M123.76,92.22,71.9,2.55H2.51l57.21,99-57.21,99H71.9l51.87-89.68A18.89,18.89,0,0,0,123.76,92.22Z"/>
        <path id="_Path_32" class="cls-16" d="M71.9,198.92h-33L38,200.51H71.9l22.57-39-.49-.79Z"/>
        <path id="_Path_33" class="cls-1" d="M123.76,92.22,71.9,2.55H2.51l57.21,99-57.21,99H71.9l51.87-89.68A18.89,18.89,0,0,0,123.76,92.22Z"/>
        <path id="_Path_34" class="cls-17" d="M3.4,198.92l-.89,1.58H38l.89-1.58Z"/>
        <path id="_Path_35" class="cls-1" d="M123.76,92.22,71.9,2.55H2.51l57.21,99-57.21,99H71.9l51.87-89.68A18.89,18.89,0,0,0,123.76,92.22Z"/>
        <path id="_Path_36" class="cls-18" d="M2.51,200.51H3.4l56.81-98.19-.49-.79Z"/>
        <path id="_Path_37" class="cls-1" d="M123.76,92.22,71.9,2.55H2.51l57.21,99-57.21,99H71.9l51.87-89.68A18.89,18.89,0,0,0,123.76,92.22Z"/>
        <path id="_Path_38" class="cls-19" d="M94.47,161.51l-16.93-29.2-4.16,7.13Z"/>
        <path id="_Path_39" class="cls-1" d="M123.76,92.22,71.9,2.55H2.51l57.21,99-57.21,99H71.9l51.87-89.68A18.89,18.89,0,0,0,123.76,92.22Z"/>
        <path id="_Path_40" class="cls-20" d="M73.38,139.44l4.16-7.13L59.72,101.53l-8.41,14.65Z"/>
        <path id="_Path_41" class="cls-1" d="M123.76,92.22,71.9,2.55H2.51l57.21,99-57.21,99H71.9l51.87-89.68A18.89,18.89,0,0,0,123.76,92.22Z"/>
        <g id="_Group_9">
          <g id="_Group_10">
            <path id="_Path_42" class="cls-21" d="M38,2.55H2.51l92,159,17.72-30.78Z"/>
          </g>
        </g>
        <path id="_Path_43" class="cls-1" d="M123.76,92.22,71.9,2.55H2.51l57.21,99-57.21,99H71.9l51.87-89.68A18.89,18.89,0,0,0,123.76,92.22Z"/>
        <path id="_Path_44" class="cls-22" d="M123.76,110.83a18.41,18.41,0,0,0,0-18.61L71.9,2.55H38l74.14,128.18Z"/>
        <path id="_Path_45" class="cls-1" d="M123.76,92.22,71.9,2.55H2.51l57.21,99-57.21,99H71.9l51.87-89.68A18.89,18.89,0,0,0,123.76,92.22Z"/>
        <path id="_Path_46" class="cls-23" d="M112.18,130.73l-.4-.79-17.32,30L3.4,2.55H2.51l92,159Z"/>
        <path id="_Path_47" class="cls-1" d="M123.76,92.22,71.9,2.55H2.51l57.21,99-57.21,99H71.9l51.87-89.68A18.89,18.89,0,0,0,123.76,92.22Z"/>
        <path id="_Path_48" class="cls-18" d="M71.9,4.13l51.87,89.68a20.11,20.11,0,0,1,2.47,8.51,19.34,19.34,0,0,0-2.47-10.1L71.9,2.55H2.51L3.4,4.13Z"/>
        <path id="_Path_49" class="cls-1" d="M123.76,92.22,71.9,2.55H2.51l57.21,99-57.21,99H71.9l51.87-89.68A18.89,18.89,0,0,0,123.76,92.22Z"/>
        <path id="_Path_50" class="cls-24" d="M112.18,130.73l11.48-19.9a19.11,19.11,0,0,0,2.47-10.1,17.64,17.64,0,0,1-2.47,8.51l-12,20.69Z"/>
        <path id="_Path_51" class="cls-1" d="M123.76,92.22,71.9,2.55H2.51l57.21,99-57.21,99H71.9l51.87-89.68A18.89,18.89,0,0,0,123.76,92.22Z"/>
        <path id="_Path_52" class="cls-25" d="M123.76,92.22,71.9,2.55H2.51l57.21,99-57.21,99H71.9l51.87-89.68A18.89,18.89,0,0,0,123.76,92.22Z"/>
      </g>
    </g>
  </g>
    <path id="_Path_53" class="cls-26" d="M240.65,53.82c0,10.79-3.17,19.5-9.6,25.83-7.32,7.62-16.83,11.48-28.51,11.48A38.76,38.76,0,0,1,174,79.45c-7.82-7.72-11.78-17.42-11.78-28.8s4-21.08,11.78-28.8a39.15,39.15,0,0,1,28.51-11.68,39.93,39.93,0,0,1,15.94,3.27,30.94,30.94,0,0,1,12.08,8.71L223.73,29c-5.15-6.14-12.17-9.21-21.18-9.21a29.54,29.54,0,0,0-21.18,8.61c-5.94,5.74-8.91,13.16-8.91,22.37s3,16.63,8.91,22.37a29.38,29.38,0,0,0,21.18,8.61c8.71,0,15.84-2.87,21.68-8.71q5.64-5.64,6.53-15.74H202.55V48h37.61a41,41,0,0,1,.49,5.84Z"/>
    <path id="_Compound_Path_" class="cls-26" d="M250.45,89.45V12h23.76c11.88,0,21.48,3.56,28.61,10.79s10.69,16.53,10.69,28-3.56,20.79-10.69,28-16.63,10.79-28.61,10.79H250.45Zm10-9.5h13.76c8.91,0,16-2.57,21.28-7.72s7.82-12.27,7.82-21.58-2.57-16.33-7.82-21.48-12.37-7.72-21.28-7.72H260.45Z"/>
    <path id="_Path_54" class="cls-26" d="M398,53.82c0,10.79-3.17,19.5-9.6,25.83-7.32,7.62-16.83,11.48-28.51,11.48a38.76,38.76,0,0,1-28.51-11.68c-7.82-7.72-11.78-17.42-11.78-28.8s4-21.08,11.78-28.8a39.15,39.15,0,0,1,28.51-11.68,39.93,39.93,0,0,1,15.94,3.27,30.94,30.94,0,0,1,12.08,8.71L381.11,29c-5.15-6.14-12.17-9.21-21.18-9.21a29.54,29.54,0,0,0-21.18,8.61c-5.94,5.74-8.91,13.16-8.91,22.37s3,16.63,8.91,22.37a29.38,29.38,0,0,0,21.18,8.61c8.71,0,15.84-2.87,21.68-8.71q5.64-5.64,6.53-15.74H359.93V48h37.61a41,41,0,0,1,.49,5.84Z"/>
    <path id="_Compound_Path_2" class="cls-26" d="M434,89.45V12h23.76c11.88,0,21.48,3.56,28.61,10.79S497,39.27,497,50.75s-3.56,20.79-10.69,28S469.7,89.55,457.72,89.55H434Zm10-9.5h13.76c8.91,0,16-2.57,21.28-7.72s7.82-12.27,7.82-21.58S484.25,34.32,479,29.17s-12.37-7.72-21.28-7.72H444Z"/>
    <path id="_Compound_Path_3" class="cls-26" d="M529.58,91.23c-8,0-14.55-2.67-19.5-8s-7.52-12.08-7.52-20.29A29.24,29.24,0,0,1,509.88,43a23.72,23.72,0,0,1,18.71-8.31c7.82,0,14.15,2.57,18.91,7.72s7.13,12,7.13,20.59l-.1,1.88H512.65c.3,5.34,2.08,9.6,5.34,12.67a16.34,16.34,0,0,0,11.48,4.65c7.13,0,12-3.07,14.55-9.11l8.91,3.66a23.69,23.69,0,0,1-8.51,10.29,25.92,25.92,0,0,1-14.85,4.16Zm14.35-34.64a14,14,0,0,0-4.16-8.71c-2.57-2.77-6.33-4.16-11.38-4.16a14.67,14.67,0,0,0-9.6,3.46,17.73,17.73,0,0,0-5.54,9.3h30.68Z"/>
    <path id="_Path_55" class="cls-26" d="M575.41,89.45,553.93,36.4h10.89l15.64,41.18h.2L596.49,36.4h10.59L585.4,89.45Z"/>
    <path id="_Path_56" class="cls-26" d="M622.82,89.45h-10V12h45.23v9.5H622.72V46.89h31.87v9.3H622.72V89.45Z"/>
    <path id="_Compound_Path_4" class="cls-26" d="M688.24,91.23c-8,0-14.55-2.67-19.5-8s-7.52-12.08-7.52-20.29A29.24,29.24,0,0,1,668.55,43a23.72,23.72,0,0,1,18.71-8.31c7.82,0,14.15,2.57,18.91,7.72s7.13,12,7.13,20.59l-.1,1.88H671.32c.3,5.34,2.08,9.6,5.34,12.67a16.34,16.34,0,0,0,11.48,4.65c7.13,0,12-3.07,14.55-9.11l8.91,3.66a23.69,23.69,0,0,1-8.51,10.29,26.37,26.37,0,0,1-14.85,4.16ZM702.5,56.59a14,14,0,0,0-4.16-8.71c-2.57-2.77-6.33-4.16-11.38-4.16a14.67,14.67,0,0,0-9.6,3.46,17.73,17.73,0,0,0-5.54,9.3H702.5Z"/>
    <path id="_Path_57" class="cls-26" d="M739.52,91.23c-5.94,0-10.79-1.48-14.65-4.36a25.74,25.74,0,0,1-8.51-10.79l8.91-3.66c2.77,6.63,7.62,10,14.35,10a13.07,13.07,0,0,0,7.62-2.08,6.33,6.33,0,0,0,3-5.44c0-3.46-2.38-5.84-7.23-7L732.29,65.3a24.76,24.76,0,0,1-9.6-4.95,11.67,11.67,0,0,1-4.55-9.8,13.31,13.31,0,0,1,6.24-11.38,24.71,24.71,0,0,1,14.75-4.36A25.22,25.22,0,0,1,751.69,38a18.24,18.24,0,0,1,7.92,9.11l-8.71,3.56c-2-4.65-6-7-12.08-7a13.35,13.35,0,0,0-7.42,1.88,5.65,5.65,0,0,0-3.07,4.95c0,3.07,2.38,5,7,6.14l10.49,2.47c4.95,1.19,8.71,3.17,11.09,5.94a14.37,14.37,0,0,1,3.56,9.5,14.8,14.8,0,0,1-5.84,11.88c-4,3.27-9,4.85-15.14,4.85Z"/>
    <path id="_Path_58" class="cls-26" d="M790.39,90.34q-8.31,0-12.77-4.45c-3-3-4.36-7.13-4.36-12.57V45.5H764V36.4h9.3V20.17h10V36.4h13V45.5h-13v27c0,5.74,2.38,8.71,7.13,8.71a10.37,10.37,0,0,0,4.55-.89l3.46,8.51a19.33,19.33,0,0,1-8,1.48Z"/>
    <path class="cls-26" d="M201.85,169.4a14.55,14.55,0,0,1-1.38,6.36,15,15,0,0,1-3.82,5,18.15,18.15,0,0,1-5.76,3.28,20.89,20.89,0,0,1-7.1,1.19,19.89,19.89,0,0,1-7-1.19,18.29,18.29,0,0,1-5.56-3.2,15.34,15.34,0,0,1-3.75-4.7,14.89,14.89,0,0,1-1.62-5.69l6.17-1.34a9.53,9.53,0,0,0,1.07,4.23,10.33,10.33,0,0,0,2.57,3.16,11.45,11.45,0,0,0,3.71,2,14.65,14.65,0,0,0,4.66.71,12.26,12.26,0,0,0,8.3-2.73,8.82,8.82,0,0,0,3.16-7,8,8,0,0,0-.67-3.36,7.1,7.1,0,0,0-2.13-2.61,14.75,14.75,0,0,0-3.87-2.05,53,53,0,0,0-6-1.78,35.19,35.19,0,0,1-7.15-2.29,17.18,17.18,0,0,1-4.66-3,9.8,9.8,0,0,1-2.53-3.79,13.6,13.6,0,0,1-.75-4.62,13.23,13.23,0,0,1,1.3-5.85,14.42,14.42,0,0,1,3.6-4.66,16.89,16.89,0,0,1,5.37-3.08,19.28,19.28,0,0,1,6.56-1.11,19.81,19.81,0,0,1,6.44,1,16.18,16.18,0,0,1,5,2.73,14.09,14.09,0,0,1,3.44,4.07,14.5,14.5,0,0,1,1.7,4.94l-6.16,1.34a8.64,8.64,0,0,0-3.61-5.89,12,12,0,0,0-7.1-2.09,12.67,12.67,0,0,0-4.09.63,11.22,11.22,0,0,0-3.25,1.7,7.36,7.36,0,0,0-2.9,5.89,5.54,5.54,0,0,0,2.57,4.94,15.5,15.5,0,0,0,3.64,1.82,51.28,51.28,0,0,0,5.49,1.62,39.28,39.28,0,0,1,7.55,2.57,17.87,17.87,0,0,1,4.94,3.36A11.25,11.25,0,0,1,201,164.1,16,16,0,0,1,201.85,169.4Z" id="svg_1"/>
    <path class="cls-26" d="M252.2,186.78l-13.28-30.35-13.28,30.35-16.28-41.89H216l10,26.71,12.88-28.93,12.88,28.93,10-26.71h6.64Z" id="svg_2"/>
    <path class="cls-26" d="M285.63,132.88a4.32,4.32,0,1,1-1.26-3.08A4.2,4.2,0,0,1,285.63,132.88Zm-7.51,51.69V144.89h6.32v39.68Z" id="svg_3"/>
    <path class="cls-26" d="M307.28,150.51v34.06H301V150.51h-8v-5.61h8v-13h6.32v13h10.59v5.61Z" id="svg_4"/>
    <path class="cls-26" d="M320.33,184.57l21.42-34H322.3V145h30.11L331,179h21.42v5.61Z" id="svg_5"/>
    <path class="cls-26" d="M399.6,164.5c0,.37,0,.71,0,1s0,.61,0,.87a5.33,5.33,0,0,0-.08.87H366.09a13.33,13.33,0,0,0,1.66,4.7,15.37,15.37,0,0,0,3.08,3.79,13.48,13.48,0,0,0,4.19,2.53,13.78,13.78,0,0,0,5,.91,15.71,15.71,0,0,0,6.16-1.3,15.15,15.15,0,0,0,5.38-3.83l4.5,4.11a19.33,19.33,0,0,1-7.27,5.3A22.68,22.68,0,0,1,380,185.2a19.75,19.75,0,0,1-8-1.62,20.57,20.57,0,0,1-10.87-10.91,19.83,19.83,0,0,1-1.62-7.94,20.29,20.29,0,0,1,5.93-14.46,20.87,20.87,0,0,1,6.48-4.39,19.76,19.76,0,0,1,8-1.62,19.45,19.45,0,0,1,14.23,6,19.1,19.1,0,0,1,4,6.44A21.72,21.72,0,0,1,399.6,164.5ZM393,161.65a14.88,14.88,0,0,0-4.46-8.38,12.38,12.38,0,0,0-8.58-3,13.71,13.71,0,0,0-4.9.87,14.47,14.47,0,0,0-4.11,2.37,13.39,13.39,0,0,0-3,3.6,14.31,14.31,0,0,0-1.7,4.54Z" id="svg_6"/>
    <path class="cls-26" d="M429.71,150.43a15.69,15.69,0,0,0-6.24,2,14.5,14.5,0,0,0-4.15,3.71,14.17,14.17,0,0,0-2.33,4.78,20.06,20.06,0,0,0-.71,5.29v18.34H410V144.89h6.32v7a15.45,15.45,0,0,1,5.06-5.06,17.87,17.87,0,0,1,8.38-2.53Z" id="svg_7"/>
    <path class="cls-26" d="M438.72,184.57V129.25H445v55.33Z" id="svg_8"/>
    <path class="cls-26" d="M484.56,184.57a8.76,8.76,0,0,1-1.07-3.16,22.08,22.08,0,0,1-.28-3.32,16.62,16.62,0,0,1-2.53,2.61,20.8,20.8,0,0,1-3.36,2.29,18.14,18.14,0,0,1-4,1.62,16.89,16.89,0,0,1-4.47.59,14.35,14.35,0,0,1-9.25-2.84,9.47,9.47,0,0,1-3.56-7.83,12.58,12.58,0,0,1,1-4.9,11.54,11.54,0,0,1,4-4.62,31.58,31.58,0,0,1,8.14-4,79.15,79.15,0,0,1,13.52-3.2,6.81,6.81,0,0,0-2.41-5.45q-2.41-2.05-6.84-2.05a16,16,0,0,0-6.48,1.19,24.7,24.7,0,0,0-5,2.92l-3.79-4.5a25.1,25.1,0,0,1,7.11-4.11,24.06,24.06,0,0,1,8.62-1.5,25.62,25.62,0,0,1,5.14.55,13.15,13.15,0,0,1,4.9,2.09,11.81,11.81,0,0,1,3.64,4.19,14.21,14.21,0,0,1,1.42,6.76v17.47a30.21,30.21,0,0,0,.4,4.66,14.18,14.18,0,0,0,1.5,4.58Zm-1.9-21.42a72.94,72.94,0,0,0-10,2.29,27.48,27.48,0,0,0-6.21,2.73,9.42,9.42,0,0,0-3.2,3,6.56,6.56,0,0,0-.91,3.32,4.18,4.18,0,0,0,.67,2.41,5.25,5.25,0,0,0,1.78,1.62,9,9,0,0,0,2.49.95,12.54,12.54,0,0,0,2.81.32,11.83,11.83,0,0,0,4.35-.87,12.94,12.94,0,0,0,8.22-12.33Z" id="svg_9"/>
    <path class="cls-26" d="M530.64,184.57V162.2q0-5.69-3-8.81a10.31,10.31,0,0,0-7.71-3.12,11.7,11.7,0,0,0-4.31.79,9.91,9.91,0,0,0-3.52,2.33,10.66,10.66,0,0,0-2.33,3.75,14.33,14.33,0,0,0-.83,5.06v22.37h-6.32V144.89h6.32V150a11.86,11.86,0,0,1,4.39-4,14.12,14.12,0,0,1,7.23-1.82,17.84,17.84,0,0,1,6.4,1.15,14.44,14.44,0,0,1,5.22,3.4,16.46,16.46,0,0,1,3.52,5.53,20.1,20.1,0,0,1,1.3,7.47v22.76Z" id="svg_10"/>
    <path class="cls-26" d="M581.14,184.57v-6.48a15.19,15.19,0,0,1-5.53,5.06,16.72,16.72,0,0,1-8.38,2.05,18.81,18.81,0,0,1-7.75-1.62,19.81,19.81,0,0,1-6.32-4.43,21.48,21.48,0,0,1-4.27-6.52,20.56,20.56,0,0,1,0-15.81,21.51,21.51,0,0,1,4.27-6.52,19.87,19.87,0,0,1,6.32-4.43,18.82,18.82,0,0,1,7.75-1.62,16.74,16.74,0,0,1,8.38,2.05,15.23,15.23,0,0,1,5.53,5.06V129.25h6.32v55.33Zm0-19.84a15,15,0,0,0-1.07-5.65,14.63,14.63,0,0,0-2.88-4.58,13.6,13.6,0,0,0-4.35-3.08,13.55,13.55,0,0,0-10.91,0,13.57,13.57,0,0,0-4.35,3.08,14.57,14.57,0,0,0-2.88,4.58A15.29,15.29,0,0,0,557.59,175a12.79,12.79,0,0,0,4.35,3.08,14,14,0,0,0,10.91,0,12.82,12.82,0,0,0,4.35-3.08,15.17,15.17,0,0,0,4-10.27Z" id="svg_11"/>
    <path class="cls-26" d="M620.18,184.57l22.92-26.32q1.66-1.9,2.77-3.4a22.65,22.65,0,0,0,1.78-2.77,10.4,10.4,0,0,0,.95-2.41,9.94,9.94,0,0,0,.28-2.33,9.22,9.22,0,0,0-.83-3.87,10.88,10.88,0,0,0-2.21-3.2,10.14,10.14,0,0,0-7.23-3q-6.64,0-10.12,7.19l-5.06-3a17.74,17.74,0,0,1,6.2-7.59,16.07,16.07,0,0,1,9.13-2.61,16.92,16.92,0,0,1,6.64,1.27,16,16,0,0,1,5.18,3.44,15.79,15.79,0,0,1,3.4,5.11,16.28,16.28,0,0,1,1.22,6.33,15.7,15.7,0,0,1-1.58,6.81,34.59,34.59,0,0,1-5.14,7.44l-15,17.26h22v5.61Z" id="svg_12"/>
    <path class="cls-26" d="M704.52,158.25A45.67,45.67,0,0,1,703,171.1a23.93,23.93,0,0,1-4.07,8.3,14.52,14.52,0,0,1-5.85,4.47,18.18,18.18,0,0,1-6.88,1.34,18.89,18.89,0,0,1-7.07-1.34,14.17,14.17,0,0,1-5.85-4.47,23.4,23.4,0,0,1-4-8.3,48,48,0,0,1-1.46-12.84,47.53,47.53,0,0,1,1.46-12.8,23.87,23.87,0,0,1,4-8.3,14.08,14.08,0,0,1,5.85-4.5,18.87,18.87,0,0,1,7.07-1.34,18.17,18.17,0,0,1,6.88,1.34,14.42,14.42,0,0,1,5.85,4.5,24.42,24.42,0,0,1,4.07,8.3A45.26,45.26,0,0,1,704.52,158.25Zm-6.32,0a48.8,48.8,0,0,0-.95-10.71,17.72,17.72,0,0,0-2.61-6.36,8.28,8.28,0,0,0-3.83-3.08,13.44,13.44,0,0,0-4.62-.79,11.89,11.89,0,0,0-4.9,1,8.87,8.87,0,0,0-3.79,3.44,19.58,19.58,0,0,0-2.45,6.48,48.62,48.62,0,0,0-.87,10,48.5,48.5,0,0,0,.87,10.08,19.55,19.55,0,0,0,2.45,6.44,8.85,8.85,0,0,0,3.79,3.44,11.88,11.88,0,0,0,4.9,1,11,11,0,0,0,4.62-1,9.41,9.41,0,0,0,3.83-3.44,19.51,19.51,0,0,0,2.61-6.44A44.57,44.57,0,0,0,698.19,158.25Z" id="svg_13"/>
    <path class="cls-26" d="M732.26,184.57V138.18l-10.83,4.43-2.13-5.22,15.33-6.09h4v53.27Z" id="svg_14"/>
    <path class="cls-26" d="M779.4611944675446,157.03520486611546 c1.4,0.3843985584524524 2.8,0.9609963961311303 4,1.7297935130360345 c1.3,0.7687971169049055 2.3,1.8258931526491464 3.3,2.8829891883933882 c0.9,1.1531956753573551 1.7000000000000002,2.402490990327823 2.2,3.9400852241376305 s0.8,3.0751884676196144 0.8,4.708882341042535 c0,2.498590629940937 -0.5,4.708882341042535 -1.5,6.6308751333047935 c-1,1.9219927922622593 -2.3,3.555686665685179 -4,4.90108162026876 c-1.7000000000000002,1.3453949545835813 -3.6,2.402490990327823 -5.8,3.0751884676196144 c-2.2,0.6726974772917925 -4.5,1.0570960357442425 -7,1.0570960357442425 s-4.8,-0.3843985584524524 -7,-1.0570960357442425 c-2.2,-0.6726974772917925 -4.2,-1.7297935130360345 -5.9,-3.0751884676196144 c-1.7000000000000002,-1.3453949545835813 -3,-2.9790888280065024 -4,-4.90108162026876 c-1,-1.9219927922622593 -1.5,-4.132284503363856 -1.5,-6.6308751333047935 c0,-1.7297935130360345 0.3000000000000003,-3.3634873864589525 0.8,-4.804981980655646 c0.5,-1.4414945941966941 1.3,-2.786889548780275 2.2,-3.9400852241376305 c0.9,-1.1531956753573551 2.1,-2.114192071488485 3.3,-2.8829891883933882 c1.3,-0.7687971169049055 2.6,-1.3453949545835813 4,-1.7297935130360345 v-0.19219927922622634 c-2.5,-0.864896756518017 -4.5,-2.3063913507147102 -6,-4.3244837825900815 c-1.6,-2.0180924318753717 -2.3,-4.516683061816308 -2.3,-7.399672250209696 c0,-2.210291711101597 0.4,-4.132284503363856 1.3,-5.86207801639989 c0.9,-1.7297935130360345 2.1,-3.2673877468458397 3.5,-4.516683061816308 c1.5,-1.2492953149704684 3.2,-2.210291711101597 5.2,-2.8829891883933882 c2,-0.6726974772917925 4.1,-0.9609963961311303 6.4,-0.9609963961311303 c2.2,0 4.3,0.28829891883933906 6.3,0.9609963961311303 c2,0.6726974772917925 3.7,1.6336938734229207 5.2,2.786889548780275 c1.5,1.2492953149704684 2.6,2.6907899091671617 3.5,4.420583422203194 c0.9,1.7297935130360345 1.3,3.7478859449114035 1.3,5.86207801639989 c0,2.8829891883933882 -0.8,5.381579818334323 -2.3,7.495771889822808 c-1.6,2.114192071488485 -3.6,3.555686665685179 -6,4.3244837825900815 V157.03520486611546 zM760.8611944675446,169.9125565742726 c0,1.4414945941966941 0.3000000000000003,2.8829891883933882 0.8,4.036184863750743 c0.5,1.2492953149704684 1.2,2.3063913507147102 2.2,3.1712881072327264 c0.9,0.864896756518017 2.1,1.5375942338098074 3.4,2.0180924318753717 c1.3,0.480498198065565 2.8,0.7687971169049055 4.4,0.7687971169049055 c1.5,0 3,-0.28829891883933906 4.3,-0.7687971169049055 c1.3,-0.480498198065565 2.4,-1.1531956753573551 3.3,-2.0180924318753717 c0.9,-0.864896756518017 1.7000000000000002,-1.9219927922622593 2.2,-3.1712881072327264 c0.5,-1.2492953149704684 0.8,-2.59469026955405 0.8,-4.036184863750743 c0,-1.4414945941966941 -0.3000000000000003,-2.786889548780275 -0.8,-3.9400852241376305 c-0.5,-1.2492953149704684 -1.3,-2.210291711101597 -2.2,-3.1712881072327264 s-2,-1.5375942338098074 -3.3,-2.114192071488485 c-1.3,-0.480498198065565 -2.7,-0.7687971169049055 -4.3,-0.7687971169049055 s-3,0.28829891883933906 -4.3,0.7687971169049055 c-1.3,0.480498198065565 -2.4,1.1531956753573551 -3.4,2.114192071488485 c-1,0.864896756518017 -1.7000000000000002,1.9219927922622593 -2.2,3.1712881072327264 C761.1611944675445,167.22176666510543 760.8611944675446,168.47106198007592 760.8611944675446,169.9125565742726 zM762.5611944675445,145.31104883331574 c0,1.1531956753573551 0.2,2.3063913507147102 0.7000000000000006,3.3634873864589525 c0.4,1.0570960357442425 1.1,1.9219927922622593 1.9,2.6907899091671617 s1.8,1.3453949545835813 2.9,1.8258931526491464 c1.1,0.480498198065565 2.3,0.6726974772917925 3.6,0.6726974772917925 c1.2,0 2.4,-0.19219927922622634 3.5,-0.6726974772917925 c1.1,-0.480498198065565 2,-1.0570960357442425 2.9,-1.8258931526491464 s1.5,-1.6336938734229207 1.9,-2.6907899091671617 c0.5,-1.0570960357442425 0.7000000000000006,-2.114192071488485 0.7000000000000006,-3.3634873864589525 c0,-1.2492953149704684 -0.2,-2.402490990327823 -0.7000000000000006,-3.4595870260720663 c-0.5,-1.0570960357442425 -1.1,-2.0180924318753717 -1.9,-2.786889548780275 s-1.7000000000000002,-1.3453949545835813 -2.8,-1.8258931526491464 c-1.1,-0.3843985584524524 -2.2,-0.6726974772917925 -3.5,-0.6726974772917925 c-1.3,0 -2.5,0.19219927922622634 -3.6,0.6726974772917925 c-1.1,0.3843985584524524 -2.1,1.0570960357442425 -2.9,1.8258931526491464 s-1.4,1.7297935130360345 -1.9,2.786889548780275 C762.7611944675446,142.90855784298788 762.5611944675445,144.0617535183452 762.5611944675445,145.31104883331574 z" id="svg_15" transform="translate(1.492537260055542,0) "/>
  </g></svg>
