<svg xmlns="http://www.w3.org/2000/svg" xmlns:xlink="http://www.w3.org/1999/xlink" data-name="Layer 4" width="798.57" height="200.51"><rect id="backgroundrect" width="100%" height="100%" fill="none"/><defs><style>.cls-1{fill:none}.cls-6{opacity:.2}.cls-18,.cls-6{isolation:isolate;fill:#fff}.cls-18{opacity:.2}.cls-26{fill:#fff}</style><radialGradient id="radial-gradient" cx="92.62" cy="-2287.5" r="69.16" gradientTransform="translate(0 2447.46)" gradientUnits="userSpaceOnUse"><stop offset="0" stop-color="#bf360c" stop-opacity=".2"/><stop offset="1" stop-color="#bf360c" stop-opacity=".02"/></radialGradient><radialGradient id="radial-gradient-2" cx="92.42" cy="-2287.06" r="69.72" gradientTransform="translate(0 2447.46)" gradientUnits="userSpaceOnUse"><stop offset="0" stop-color="#263238" stop-opacity=".2"/><stop offset="1" stop-color="#263238" stop-opacity=".02"/></radialGradient><radialGradient id="radial-gradient-3" cx="-1.56" cy="-2445.9" r="209.92" gradientTransform="translate(0 2447.46)" gradientUnits="userSpaceOnUse"><stop offset="0" stop-color="#fff" stop-opacity=".1"/><stop offset="1" stop-color="#fff" stop-opacity="0"/></radialGradient><radialGradient id="radial-gradient-4" cx="94.19" cy="-1914.58" r="68.46" gradientTransform="translate(0 2075.46)" gradientUnits="userSpaceOnUse"><stop offset="0" stop-color="#be4127" stop-opacity=".2"/><stop offset="1" stop-color="#be4127" stop-opacity=".02"/></radialGradient><radialGradient id="radial-gradient-5" cx="93.99" cy="-1914.15" r="69.01" gradientTransform="translate(0 2075.46)" gradientUnits="userSpaceOnUse"><stop offset="0" stop-color="#1d2f36" stop-opacity=".2"/><stop offset="1" stop-color="#1d2f36" stop-opacity=".02"/></radialGradient><radialGradient id="radial-gradient-6" cx=".97" cy="-2071.37" r="207.78" gradientTransform="translate(0 2075.46)" xlink:href="#radial-gradient-3"/></defs><g class="currentLayer"><g id="_Group_"><g id="_Group_2"><g id="_Group_3"><path id="_Path_" class="cls-1" d="M122.5 90.6L70.1 0H0l57.8 100L0 200h70.1l52.4-90.6a19.09 19.09 0 0 0 0-18.8z"/><path id="_Path_2" d="M92.4 159.8l-16.6-28.7L35.9 200h34.2l22.8-39.4z" fill="#ffc107"/><path id="_Path_3" class="cls-1" d="M122.5 90.6L70.1 0H0l57.8 100L0 200h70.1l52.4-90.6a19.09 19.09 0 0 0 0-18.8z"/><path id="_Path_4" d="M57.8 100l18 31.1L35.9 200H0z" fill="#0f9d58"/><path id="_Path_5" class="cls-1" d="M122.5 90.6L70.1 0H0l57.8 100L0 200h70.1l52.4-90.6a19.09 19.09 0 0 0 0-18.8z"/><path id="_Path_6" d="M70.1 198.4H36.8l-.9 1.6h34.2l22.8-39.4-.5-.8z" style="isolation:isolate" opacity=".2" fill="#bf360c"/><path id="_Path_7" class="cls-1" d="M122.5 90.6L70.1 0H0l57.8 100L0 200h70.1l52.4-90.6a19.09 19.09 0 0 0 0-18.8z"/><path id="_Path_8" d="M.9 198.4L0 200h35.9l.9-1.6z" style="isolation:isolate" fill="#263238" opacity=".2"/><path id="_Path_9" class="cls-1" d="M122.5 90.6L70.1 0H0l57.8 100L0 200h70.1l52.4-90.6a19.09 19.09 0 0 0 0-18.8z"/><path id="_Path_10" class="cls-6" d="M0 200h.9l57.4-99.2-.5-.8z"/><path id="_Path_11" class="cls-1" d="M122.5 90.6L70.1 0H0l57.8 100L0 200h70.1l52.4-90.6a19.09 19.09 0 0 0 0-18.8z"/><path id="_Path_12" d="M92.9 160.6l-17.1-29.5-4.2 7.2z" fill="url(#radial-gradient)"/><path id="_Path_13" class="cls-1" d="M122.5 90.6L70.1 0H0l57.8 100L0 200h70.1l52.4-90.6a19.09 19.09 0 0 0 0-18.8z"/><path id="_Path_14" d="M71.6 138.3l4.2-7.2-18-31.1-8.5 14.8z" fill="url(#radial-gradient-2)"/><path id="_Path_15" class="cls-1" d="M122.5 90.6L70.1 0H0l57.8 100L0 200h70.1l52.4-90.6a19.09 19.09 0 0 0 0-18.8z"/><g id="_Group_4"><g id="_Group_5"><path id="_Path_16" d="M35.9 0H0l92.9 160.6 17.9-31.1z" fill="#4285f4"/></g></g><path id="_Path_17" class="cls-1" d="M122.5 90.6L70.1 0H0l57.8 100L0 200h70.1l52.4-90.6a19.09 19.09 0 0 0 0-18.8z"/><path id="_Path_18" d="M122.5 109.4a18.6 18.6 0 0 0 0-18.8L70.1 0H35.9l74.9 129.5z" fill="#db4437"/><path id="_Path_19" class="cls-1" d="M122.5 90.6L70.1 0H0l57.8 100L0 200h70.1l52.4-90.6a19.09 19.09 0 0 0 0-18.8z"/><path id="_Path_20" d="M110.8 129.5l-.4-.8L92.9 159 .9 0H0l92.9 160.6z" style="isolation:isolate" fill="#1a237e" opacity=".2"/><path id="_Path_21" class="cls-1" d="M122.5 90.6L70.1 0H0l57.8 100L0 200h70.1l52.4-90.6a19.09 19.09 0 0 0 0-18.8z"/><path id="_Path_22" class="cls-6" d="M70.1 1.6l52.4 90.6a20.32 20.32 0 0 1 2.5 8.6 19.54 19.54 0 0 0-2.5-10.2L70.1 0H0l.9 1.6z"/><path id="_Path_23" class="cls-1" d="M122.5 90.6L70.1 0H0l57.8 100L0 200h70.1l52.4-90.6a19.09 19.09 0 0 0 0-18.8z"/><path id="_Path_24" d="M110.8 129.5l11.6-20.1a19.31 19.31 0 0 0 2.5-10.2 17.83 17.83 0 0 1-2.5 8.6l-12.1 20.9z" style="isolation:isolate" fill="#3e2723" opacity=".2"/><path id="_Path_25" class="cls-1" d="M122.5 90.6L70.1 0H0l57.8 100L0 200h70.1l52.4-90.6a19.09 19.09 0 0 0 0-18.8z"/><path id="_Path_26" d="M122.5 90.6L70.1 0H0l57.8 100L0 200h70.1l52.4-90.6a19.09 19.09 0 0 0 0-18.8z" fill="url(#radial-gradient-3)"/></g></g></g><g id="_Group_6"><g id="_Group_7"><g id="_Group_8"><path id="_Path_27" class="cls-1" d="M123.76 92.22L71.9 2.55H2.51l57.21 99-57.21 99H71.9l51.87-89.68a18.89 18.89 0 0 0-.01-18.65z"/><path id="_Path_28" d="M94 160.72l-16.46-28.41L38 200.51h33.9l22.57-39z" fill="#fdbd2a"/><path id="_Path_29" class="cls-1" d="M123.76 92.22L71.9 2.55H2.51l57.21 99-57.21 99H71.9l51.87-89.68a18.89 18.89 0 0 0-.01-18.65z"/><path id="_Path_30" d="M59.72 101.53l17.82 30.78L38 200.51H2.51z" fill="#11a464"/><path id="_Path_31" class="cls-1" d="M123.76 92.22L71.9 2.55H2.51l57.21 99-57.21 99H71.9l51.87-89.68a18.89 18.89 0 0 0-.01-18.65z"/><path id="_Path_32" d="M71.9 198.92h-33l-.9 1.59h33.9l22.57-39-.49-.79z" style="isolation:isolate" opacity=".2" fill="#be4127"/><path id="_Path_33" class="cls-1" d="M123.76 92.22L71.9 2.55H2.51l57.21 99-57.21 99H71.9l51.87-89.68a18.89 18.89 0 0 0-.01-18.65z"/><path id="_Path_34" d="M3.4 198.92l-.89 1.58H38l.89-1.58z" style="isolation:isolate" fill="#1d2f36" opacity=".2"/><path id="_Path_35" class="cls-1" d="M123.76 92.22L71.9 2.55H2.51l57.21 99-57.21 99H71.9l51.87-89.68a18.89 18.89 0 0 0-.01-18.65z"/><path id="_Path_36" class="cls-18" d="M2.51 200.51h.89l56.81-98.19-.49-.79z"/><path id="_Path_37" class="cls-1" d="M123.76 92.22L71.9 2.55H2.51l57.21 99-57.21 99H71.9l51.87-89.68a18.89 18.89 0 0 0-.01-18.65z"/><path id="_Path_38" d="M94.47 161.51l-16.93-29.2-4.16 7.13z" fill="url(#radial-gradient-4)"/><path id="_Path_39" class="cls-1" d="M123.76 92.22L71.9 2.55H2.51l57.21 99-57.21 99H71.9l51.87-89.68a18.89 18.89 0 0 0-.01-18.65z"/><path id="_Path_40" d="M73.38 139.44l4.16-7.13-17.82-30.78-8.41 14.65z" fill="url(#radial-gradient-5)"/><path id="_Path_41" class="cls-1" d="M123.76 92.22L71.9 2.55H2.51l57.21 99-57.21 99H71.9l51.87-89.68a18.89 18.89 0 0 0-.01-18.65z"/><g id="_Group_9"><g id="_Group_10"><path id="_Path_42" d="M38 2.55H2.51l92 159 17.72-30.78z" fill="#4d7cbe"/></g></g><path id="_Path_43" class="cls-1" d="M123.76 92.22L71.9 2.55H2.51l57.21 99-57.21 99H71.9l51.87-89.68a18.89 18.89 0 0 0-.01-18.65z"/><path id="_Path_44" d="M123.76 110.83a18.41 18.41 0 0 0 0-18.61L71.9 2.55H38l74.14 128.18z" fill="#dd4f41"/><path id="_Path_45" class="cls-1" d="M123.76 92.22L71.9 2.55H2.51l57.21 99-57.21 99H71.9l51.87-89.68a18.89 18.89 0 0 0-.01-18.65z"/><path id="_Path_46" d="M112.18 130.73l-.4-.79-17.32 30L3.4 2.55h-.89l92 159z" style="isolation:isolate" fill="#29397a" opacity=".2"/><path id="_Path_47" class="cls-1" d="M123.76 92.22L71.9 2.55H2.51l57.21 99-57.21 99H71.9l51.87-89.68a18.89 18.89 0 0 0-.01-18.65z"/><path id="_Path_48" class="cls-18" d="M71.9 4.13l51.87 89.68a20.11 20.11 0 0 1 2.47 8.51 19.34 19.34 0 0 0-2.47-10.1L71.9 2.55H2.51l.89 1.58z"/><path id="_Path_49" class="cls-1" d="M123.76 92.22L71.9 2.55H2.51l57.21 99-57.21 99H71.9l51.87-89.68a18.89 18.89 0 0 0-.01-18.65z"/><path id="_Path_50" d="M112.18 130.73l11.48-19.9a19.11 19.11 0 0 0 2.47-10.1 17.64 17.64 0 0 1-2.47 8.51l-12 20.69z" style="isolation:isolate" fill="#382120" opacity=".2"/><path id="_Path_51" class="cls-1" d="M123.76 92.22L71.9 2.55H2.51l57.21 99-57.21 99H71.9l51.87-89.68a18.89 18.89 0 0 0-.01-18.65z"/><path id="_Path_52" d="M123.76 92.22L71.9 2.55H2.51l57.21 99-57.21 99H71.9l51.87-89.68a18.89 18.89 0 0 0-.01-18.65z" fill="url(#radial-gradient-6)"/></g></g></g><path id="_Path_53" class="cls-26" d="M240.65 53.82c0 10.79-3.17 19.5-9.6 25.83-7.32 7.62-16.83 11.48-28.51 11.48A38.76 38.76 0 0 1 174 79.45c-7.82-7.72-11.78-17.42-11.78-28.8s4-21.08 11.78-28.8a39.15 39.15 0 0 1 28.51-11.68 39.93 39.93 0 0 1 15.94 3.27 30.94 30.94 0 0 1 12.08 8.71l-6.8 6.85c-5.15-6.14-12.17-9.21-21.18-9.21a29.54 29.54 0 0 0-21.18 8.61c-5.94 5.74-8.91 13.16-8.91 22.37s3 16.63 8.91 22.37a29.38 29.38 0 0 0 21.18 8.61c8.71 0 15.84-2.87 21.68-8.71q5.64-5.64 6.53-15.74h-28.21V48h37.61a41 41 0 0 1 .49 5.84z"/><path id="_Compound_Path_" class="cls-26" d="M250.45 89.45V12h23.76c11.88 0 21.48 3.56 28.61 10.79s10.69 16.53 10.69 28-3.56 20.79-10.69 28-16.63 10.79-28.61 10.79h-23.76zm10-9.5h13.76c8.91 0 16-2.57 21.28-7.72s7.82-12.27 7.82-21.58-2.57-16.33-7.82-21.48-12.37-7.72-21.28-7.72h-13.76z"/><path id="_Path_54" class="cls-26" d="M398 53.82c0 10.79-3.17 19.5-9.6 25.83-7.32 7.62-16.83 11.48-28.51 11.48a38.76 38.76 0 0 1-28.51-11.68c-7.82-7.72-11.78-17.42-11.78-28.8s4-21.08 11.78-28.8a39.15 39.15 0 0 1 28.51-11.68 39.93 39.93 0 0 1 15.94 3.27 30.94 30.94 0 0 1 12.08 8.71l-6.8 6.85c-5.15-6.14-12.17-9.21-21.18-9.21a29.54 29.54 0 0 0-21.18 8.61c-5.94 5.74-8.91 13.16-8.91 22.37s3 16.63 8.91 22.37a29.38 29.38 0 0 0 21.18 8.61c8.71 0 15.84-2.87 21.68-8.71q5.64-5.64 6.53-15.74h-28.21V48h37.61a41 41 0 0 1 .49 5.84z"/><path id="_Compound_Path_2" class="cls-26" d="M434 89.45V12h23.76c11.88 0 21.48 3.56 28.61 10.79S497 39.27 497 50.75s-3.56 20.79-10.69 28-16.61 10.8-28.59 10.8H434zm10-9.5h13.76c8.91 0 16-2.57 21.28-7.72s7.82-12.27 7.82-21.58-2.61-16.33-7.86-21.48-12.37-7.72-21.28-7.72H444z"/><path id="_Compound_Path_3" class="cls-26" d="M529.58 91.23c-8 0-14.55-2.67-19.5-8s-7.52-12.08-7.52-20.29A29.24 29.24 0 0 1 509.88 43a23.72 23.72 0 0 1 18.71-8.31c7.82 0 14.15 2.57 18.91 7.72s7.13 12 7.13 20.59l-.1 1.88h-41.88c.3 5.34 2.08 9.6 5.34 12.67a16.34 16.34 0 0 0 11.48 4.65c7.13 0 12-3.07 14.55-9.11l8.91 3.66a23.69 23.69 0 0 1-8.51 10.29 25.92 25.92 0 0 1-14.85 4.16zm14.35-34.64a14 14 0 0 0-4.16-8.71c-2.57-2.77-6.33-4.16-11.38-4.16a14.67 14.67 0 0 0-9.6 3.46 17.73 17.73 0 0 0-5.54 9.3h30.68z"/><path id="_Path_55" class="cls-26" d="M575.41 89.45L553.93 36.4h10.89l15.64 41.18h.2l15.83-41.18h10.59L585.4 89.45z"/><path id="_Path_56" class="cls-26" d="M622.82 89.45h-10V12h45.23v9.5h-35.33v25.39h31.87v9.3h-31.87v33.26z"/><path id="_Compound_Path_4" class="cls-26" d="M688.24 91.23c-8 0-14.55-2.67-19.5-8s-7.52-12.08-7.52-20.29A29.24 29.24 0 0 1 668.55 43a23.72 23.72 0 0 1 18.71-8.31c7.82 0 14.15 2.57 18.91 7.72s7.13 12 7.13 20.59l-.1 1.88h-41.88c.3 5.34 2.08 9.6 5.34 12.67a16.34 16.34 0 0 0 11.48 4.65c7.13 0 12-3.07 14.55-9.11l8.91 3.66a23.69 23.69 0 0 1-8.51 10.29 26.37 26.37 0 0 1-14.85 4.16zm14.26-34.64a14 14 0 0 0-4.16-8.71c-2.57-2.77-6.33-4.16-11.38-4.16a14.67 14.67 0 0 0-9.6 3.46 17.73 17.73 0 0 0-5.54 9.3h30.68z"/><path id="_Path_57" class="cls-26" d="M739.52 91.23c-5.94 0-10.79-1.48-14.65-4.36a25.74 25.74 0 0 1-8.51-10.79l8.91-3.66c2.77 6.63 7.62 10 14.35 10a13.07 13.07 0 0 0 7.62-2.08 6.33 6.33 0 0 0 3-5.44c0-3.46-2.38-5.84-7.23-7l-10.72-2.6a24.76 24.76 0 0 1-9.6-4.95 11.67 11.67 0 0 1-4.55-9.8 13.31 13.31 0 0 1 6.24-11.38 24.71 24.71 0 0 1 14.75-4.36A25.22 25.22 0 0 1 751.69 38a18.24 18.24 0 0 1 7.92 9.11l-8.71 3.56c-2-4.65-6-7-12.08-7a13.35 13.35 0 0 0-7.42 1.88 5.65 5.65 0 0 0-3.07 4.95c0 3.07 2.38 5 7 6.14l10.49 2.47c4.95 1.19 8.71 3.17 11.09 5.94a14.37 14.37 0 0 1 3.56 9.5 14.8 14.8 0 0 1-5.84 11.88c-4 3.27-9 4.85-15.14 4.85z"/><path id="_Path_58" class="cls-26" d="M790.39 90.34q-8.31 0-12.77-4.45c-3-3-4.36-7.13-4.36-12.57V45.5H764v-9.1h9.3V20.17h10V36.4h13v9.1h-13v27c0 5.74 2.38 8.71 7.13 8.71a10.37 10.37 0 0 0 4.55-.89l3.46 8.51a19.33 19.33 0 0 1-8 1.48z"/><path class="cls-26" d="M201.85 169.4a14.55 14.55 0 0 1-1.38 6.36 15 15 0 0 1-3.82 5 18.15 18.15 0 0 1-5.76 3.28 20.89 20.89 0 0 1-7.1 1.19 19.89 19.89 0 0 1-7-1.19 18.29 18.29 0 0 1-5.56-3.2 15.34 15.34 0 0 1-3.75-4.7 14.89 14.89 0 0 1-1.62-5.69l6.17-1.34a9.53 9.53 0 0 0 1.07 4.23 10.33 10.33 0 0 0 2.57 3.16 11.45 11.45 0 0 0 3.71 2 14.65 14.65 0 0 0 4.66.71 12.26 12.26 0 0 0 8.3-2.73 8.82 8.82 0 0 0 3.16-7 8 8 0 0 0-.67-3.36 7.1 7.1 0 0 0-2.13-2.61 14.75 14.75 0 0 0-3.87-2.05 53 53 0 0 0-6-1.78 35.19 35.19 0 0 1-7.15-2.29 17.18 17.18 0 0 1-4.66-3 9.8 9.8 0 0 1-2.53-3.79 13.6 13.6 0 0 1-.75-4.62 13.23 13.23 0 0 1 1.3-5.85 14.42 14.42 0 0 1 3.6-4.66 16.89 16.89 0 0 1 5.37-3.08 19.28 19.28 0 0 1 6.56-1.11 19.81 19.81 0 0 1 6.44 1 16.18 16.18 0 0 1 5 2.73 14.09 14.09 0 0 1 3.44 4.07 14.5 14.5 0 0 1 1.7 4.94l-6.16 1.34a8.64 8.64 0 0 0-3.61-5.89 12 12 0 0 0-7.1-2.09 12.67 12.67 0 0 0-4.09.63 11.22 11.22 0 0 0-3.25 1.7 7.36 7.36 0 0 0-2.9 5.89 5.54 5.54 0 0 0 2.57 4.94 15.5 15.5 0 0 0 3.64 1.82 51.28 51.28 0 0 0 5.49 1.62 39.28 39.28 0 0 1 7.55 2.57 17.87 17.87 0 0 1 4.94 3.36 11.25 11.25 0 0 1 2.77 4.19 16 16 0 0 1 .85 5.3z" id="svg_1"/><path class="cls-26" d="M252.2 186.78l-13.28-30.35-13.28 30.35-16.28-41.89H216l10 26.71 12.88-28.93 12.88 28.93 10-26.71h6.64z" id="svg_2"/><path class="cls-26" d="M285.63 132.88a4.32 4.32 0 1 1-1.26-3.08 4.2 4.2 0 0 1 1.26 3.08zm-7.51 51.69v-39.68h6.32v39.68z" id="svg_3"/><path class="cls-26" d="M307.28 150.51v34.06H301v-34.06h-8v-5.61h8v-13h6.32v13h10.59v5.61z" id="svg_4"/><path class="cls-26" d="M320.33 184.57l21.42-34H322.3V145h30.11L331 179h21.42v5.61z" id="svg_5"/><path class="cls-26" d="M399.6 164.5v1.87a5.33 5.33 0 0 0-.08.87h-33.43a13.33 13.33 0 0 0 1.66 4.7 15.37 15.37 0 0 0 3.08 3.79 13.48 13.48 0 0 0 4.19 2.53 13.78 13.78 0 0 0 5 .91 15.71 15.71 0 0 0 6.16-1.3 15.15 15.15 0 0 0 5.38-3.83l4.5 4.11a19.33 19.33 0 0 1-7.27 5.3 22.68 22.68 0 0 1-8.79 1.75 19.75 19.75 0 0 1-8-1.62 20.57 20.57 0 0 1-10.87-10.91 19.83 19.83 0 0 1-1.62-7.94 20.29 20.29 0 0 1 5.93-14.46 20.87 20.87 0 0 1 6.48-4.39 19.76 19.76 0 0 1 8-1.62 19.45 19.45 0 0 1 14.23 6 19.1 19.1 0 0 1 4 6.44 21.72 21.72 0 0 1 1.45 7.8zm-6.6-2.85a14.88 14.88 0 0 0-4.46-8.38 12.38 12.38 0 0 0-8.58-3 13.71 13.71 0 0 0-4.9.87 14.47 14.47 0 0 0-4.11 2.37 13.39 13.39 0 0 0-3 3.6 14.31 14.31 0 0 0-1.7 4.54z" id="svg_6"/><path class="cls-26" d="M429.71 150.43a15.69 15.69 0 0 0-6.24 2 14.5 14.5 0 0 0-4.15 3.71 14.17 14.17 0 0 0-2.33 4.78 20.06 20.06 0 0 0-.71 5.29v18.34H410v-39.66h6.32v7a15.45 15.45 0 0 1 5.06-5.06 17.87 17.87 0 0 1 8.38-2.53z" id="svg_7"/><path class="cls-26" d="M438.72 184.57v-55.32H445v55.33z" id="svg_8"/><path class="cls-26" d="M484.56 184.57a8.76 8.76 0 0 1-1.07-3.16 22.08 22.08 0 0 1-.28-3.32 16.62 16.62 0 0 1-2.53 2.61 20.8 20.8 0 0 1-3.36 2.29 18.14 18.14 0 0 1-4 1.62 16.89 16.89 0 0 1-4.47.59 14.35 14.35 0 0 1-9.25-2.84 9.47 9.47 0 0 1-3.56-7.83 12.58 12.58 0 0 1 1-4.9 11.54 11.54 0 0 1 4-4.62 31.58 31.58 0 0 1 8.14-4 79.15 79.15 0 0 1 13.52-3.2 6.81 6.81 0 0 0-2.41-5.45q-2.41-2.05-6.84-2.05a16 16 0 0 0-6.48 1.19 24.7 24.7 0 0 0-5 2.92l-3.79-4.5a25.1 25.1 0 0 1 7.11-4.11 24.06 24.06 0 0 1 8.62-1.5 25.62 25.62 0 0 1 5.14.55 13.15 13.15 0 0 1 4.9 2.09 11.81 11.81 0 0 1 3.64 4.19 14.21 14.21 0 0 1 1.42 6.76v17.47a30.21 30.21 0 0 0 .4 4.66 14.18 14.18 0 0 0 1.5 4.58zm-1.9-21.42a72.94 72.94 0 0 0-10 2.29 27.48 27.48 0 0 0-6.21 2.73 9.42 9.42 0 0 0-3.2 3 6.56 6.56 0 0 0-.91 3.32 4.18 4.18 0 0 0 .67 2.41 5.25 5.25 0 0 0 1.78 1.62 9 9 0 0 0 2.49.95 12.54 12.54 0 0 0 2.81.32 11.83 11.83 0 0 0 4.35-.87 12.94 12.94 0 0 0 8.22-12.33z" id="svg_9"/><path class="cls-26" d="M530.64 184.57V162.2q0-5.69-3-8.81a10.31 10.31 0 0 0-7.71-3.12 11.7 11.7 0 0 0-4.31.79 9.91 9.91 0 0 0-3.52 2.33 10.66 10.66 0 0 0-2.33 3.75 14.33 14.33 0 0 0-.83 5.06v22.37h-6.32v-39.68h6.32V150a11.86 11.86 0 0 1 4.39-4 14.12 14.12 0 0 1 7.23-1.82 17.84 17.84 0 0 1 6.4 1.15 14.44 14.44 0 0 1 5.22 3.4 16.46 16.46 0 0 1 3.52 5.53 20.1 20.1 0 0 1 1.3 7.47v22.76z" id="svg_10"/><path class="cls-26" d="M581.14 184.57v-6.48a15.19 15.19 0 0 1-5.53 5.06 16.72 16.72 0 0 1-8.38 2.05 18.81 18.81 0 0 1-7.75-1.62 19.81 19.81 0 0 1-6.32-4.43 21.48 21.48 0 0 1-4.27-6.52 20.56 20.56 0 0 1 0-15.81 21.51 21.51 0 0 1 4.27-6.52 19.87 19.87 0 0 1 6.32-4.43 18.82 18.82 0 0 1 7.75-1.62 16.74 16.74 0 0 1 8.38 2.05 15.23 15.23 0 0 1 5.53 5.06v-22.11h6.32v55.33zm0-19.84a15 15 0 0 0-1.07-5.65 14.63 14.63 0 0 0-2.88-4.58 13.6 13.6 0 0 0-4.35-3.08 13.55 13.55 0 0 0-10.91 0 13.57 13.57 0 0 0-4.35 3.08 14.57 14.57 0 0 0-2.88 4.58 15.29 15.29 0 0 0 2.89 15.92 12.79 12.79 0 0 0 4.35 3.08 14 14 0 0 0 10.91 0 12.82 12.82 0 0 0 4.35-3.08 15.17 15.17 0 0 0 4-10.27z" id="svg_11"/><path class="cls-26" d="M620.18 184.57l22.92-26.32q1.66-1.9 2.77-3.4a22.65 22.65 0 0 0 1.78-2.77 10.4 10.4 0 0 0 .95-2.41 9.94 9.94 0 0 0 .28-2.33 9.22 9.22 0 0 0-.83-3.87 10.88 10.88 0 0 0-2.21-3.2 10.14 10.14 0 0 0-7.23-3q-6.64 0-10.12 7.19l-5.06-3a17.74 17.74 0 0 1 6.2-7.59 16.07 16.07 0 0 1 9.13-2.61 16.92 16.92 0 0 1 6.64 1.27 16 16 0 0 1 5.18 3.44 15.79 15.79 0 0 1 3.4 5.11 16.28 16.28 0 0 1 1.22 6.33 15.7 15.7 0 0 1-1.58 6.81 34.59 34.59 0 0 1-5.14 7.44l-15 17.26h22v5.61z" id="svg_12"/><path class="cls-26" d="M704.52 158.25A45.67 45.67 0 0 1 703 171.1a23.93 23.93 0 0 1-4.07 8.3 14.52 14.52 0 0 1-5.85 4.47 18.18 18.18 0 0 1-6.88 1.34 18.89 18.89 0 0 1-7.07-1.34 14.17 14.17 0 0 1-5.85-4.47 23.4 23.4 0 0 1-4-8.3 48 48 0 0 1-1.46-12.84 47.53 47.53 0 0 1 1.46-12.8 23.87 23.87 0 0 1 4-8.3 14.08 14.08 0 0 1 5.85-4.5 18.87 18.87 0 0 1 7.07-1.34 18.17 18.17 0 0 1 6.88 1.34 14.42 14.42 0 0 1 5.85 4.5 24.42 24.42 0 0 1 4.07 8.3 45.26 45.26 0 0 1 1.52 12.79zm-6.32 0a48.8 48.8 0 0 0-.95-10.71 17.72 17.72 0 0 0-2.61-6.36 8.28 8.28 0 0 0-3.83-3.08 13.44 13.44 0 0 0-4.62-.79 11.89 11.89 0 0 0-4.9 1 8.87 8.87 0 0 0-3.79 3.44 19.58 19.58 0 0 0-2.45 6.48 48.62 48.62 0 0 0-.87 10 48.5 48.5 0 0 0 .87 10.08 19.55 19.55 0 0 0 2.45 6.44 8.85 8.85 0 0 0 3.79 3.44 11.88 11.88 0 0 0 4.9 1 11 11 0 0 0 4.62-1 9.41 9.41 0 0 0 3.83-3.44 19.51 19.51 0 0 0 2.61-6.44 44.57 44.57 0 0 0 .94-10.06z" id="svg_13"/><path class="cls-26" d="M732.26 184.57v-46.39l-10.83 4.43-2.13-5.22 15.33-6.09h4v53.27z" id="svg_14"/><path class="cls-26" d="M779.461 157.035c1.4.385 2.8.961 4 1.73 1.3.769 2.3 1.826 3.3 2.883.9 1.153 1.7 2.402 2.2 3.94s.8 3.075.8 4.709c0 2.499-.5 4.709-1.5 6.63-1 1.923-2.3 3.557-4 4.902-1.7 1.345-3.6 2.402-5.8 3.075-2.2.673-4.5 1.057-7 1.057s-4.8-.384-7-1.057a17.98 17.98 0 0 1-5.9-3.075c-1.7-1.345-3-2.98-4-4.901-1-1.922-1.5-4.132-1.5-6.631 0-1.73.3-3.364.8-4.805.5-1.442 1.3-2.787 2.2-3.94.9-1.153 2.1-2.114 3.3-2.883 1.3-.769 2.6-1.345 4-1.73v-.192c-2.5-.865-4.5-2.306-6-4.325-1.6-2.018-2.3-4.516-2.3-7.4 0-2.21.4-4.132 1.3-5.861.9-1.73 2.1-3.268 3.5-4.517 1.5-1.25 3.2-2.21 5.2-2.883s4.1-.961 6.4-.961c2.2 0 4.3.288 6.3.961s3.7 1.634 5.2 2.787c1.5 1.25 2.6 2.69 3.5 4.42.9 1.73 1.3 3.748 1.3 5.863 0 2.883-.8 5.381-2.3 7.495-1.6 2.115-3.6 3.556-6 4.325v.384zm-18.6 12.878c0 1.441.3 2.883.8 4.036.5 1.249 1.2 2.306 2.2 3.171.9.865 2.1 1.538 3.4 2.018 1.3.48 2.8.769 4.4.769 1.5 0 3-.288 4.3-.769 1.3-.48 2.4-1.153 3.3-2.018.9-.865 1.7-1.922 2.2-3.171.5-1.25.8-2.595.8-4.036 0-1.442-.3-2.787-.8-3.94-.5-1.25-1.3-2.21-2.2-3.172s-2-1.537-3.3-2.114c-1.3-.48-2.7-.769-4.3-.769s-3 .288-4.3.769c-1.3.48-2.4 1.153-3.4 2.114-1 .865-1.7 1.922-2.2 3.171a8.79 8.79 0 0 0-.9 3.94zm1.7-24.602c0 1.153.2 2.306.7 3.364.4 1.057 1.1 1.922 1.9 2.69s1.8 1.346 2.9 1.826c1.1.48 2.3.673 3.6.673 1.2 0 2.4-.192 3.5-.673 1.1-.48 2-1.057 2.9-1.826s1.5-1.633 1.9-2.69c.5-1.058.7-2.115.7-3.364 0-1.25-.2-2.402-.7-3.46-.5-1.057-1.1-2.018-1.9-2.786s-1.7-1.346-2.8-1.826c-1.1-.385-2.2-.673-3.5-.673-1.3 0-2.5.192-3.6.673-1.1.384-2.1 1.057-2.9 1.826s-1.4 1.73-1.9 2.786c-.6 1.058-.8 2.21-.8 3.46z" id="svg_15" transform="translate(1.493)"/></g></svg>